<svg width="15" height="24" viewBox="0 0 15 24" fill="none" xmlns="http://www.w3.org/2000/svg">
<path d="M0 3C0 1.34315 1.34315 0 3 0H12C13.6569 0 15 1.34315 15 3V21C15 22.6569 13.6569 24 12 24H3C1.34315 24 0 22.6569 0 21V3Z" fill="black"/>
<path fill-rule="evenodd" clip-rule="evenodd" d="M12 1H3C1.89543 1 1 1.89543 1 3V21C1 22.1046 1.89543 23 3 23H12C13.1046 23 14 22.1046 14 21V3C14 1.89543 13.1046 1 12 1ZM3 0C1.34315 0 0 1.34315 0 3V21C0 22.6569 1.34315 24 3 24H12C13.6569 24 15 22.6569 15 21V3C15 1.34315 13.6569 0 12 0H3Z" fill="#FE0000"/>
<path d="M8.52148 20.7514C8.52148 21.3007 8.07377 21.746 7.52148 21.746C6.9692 21.746 6.52148 21.3007 6.52148 20.7514C6.52148 20.2021 6.9692 19.7568 7.52148 19.7568C8.07377 19.7568 8.52148 20.2021 8.52148 20.7514Z" fill="#FE0000"/>
</svg>
