<svg width="21" height="34" viewBox="0 0 21 34" fill="none" xmlns="http://www.w3.org/2000/svg">
<path d="M0 4.2C0 1.8804 1.8804 0 4.2 0H16.8C19.1196 0 21 1.8804 21 4.2V29.4C21 31.7196 19.1196 33.6 16.8 33.6H4.2C1.8804 33.6 0 31.7196 0 29.4V4.2Z" fill="black"/>
<path fill-rule="evenodd" clip-rule="evenodd" d="M16.8 1.4H4.2C2.6536 1.4 1.4 2.6536 1.4 4.2V29.4C1.4 30.9464 2.6536 32.2 4.2 32.2H16.8C18.3464 32.2 19.6 30.9464 19.6 29.4V4.2C19.6 2.6536 18.3464 1.4 16.8 1.4ZM4.2 0C1.8804 0 0 1.8804 0 4.2V29.4C0 31.7196 1.8804 33.6 4.2 33.6H16.8C19.1196 33.6 21 31.7196 21 29.4V4.2C21 1.8804 19.1196 0 16.8 0H4.2Z" fill="#FE0000"/>
<path d="M11.9301 29.052C11.9301 29.821 11.3033 30.4444 10.5301 30.4444C9.75688 30.4444 9.13008 29.821 9.13008 29.052C9.13008 28.283 9.75688 27.6596 10.5301 27.6596C11.3033 27.6596 11.9301 28.283 11.9301 29.052Z" fill="#FE0000"/>
</svg>
